<svg width="41" height="41" fill="none" xmlns="http://www.w3.org/2000/svg"><circle cx="20.5" cy="20.5" r="19" stroke="#F5F5F5" stroke-width="3"/><path d="M12 14.905l7.89 6.846a1.69 1.69 0 001.11.437 1.69 1.69 0 001.11-.437L30 14.905M14 29.22h14c.53 0 1.04-.274 1.414-.762.375-.488.586-1.15.586-1.84V13.602c0-.69-.21-1.352-.586-1.84C29.04 11.273 28.53 11 28 11H14c-.53 0-1.04.274-1.414.762-.375.489-.586 1.15-.586 1.841v13.015c0 .69.21 1.353.586 1.841.375.488.884.762 1.414.762z" stroke="#F5F5F5" stroke-width="2" stroke-linecap="round" stroke-linejoin="round"/></svg>