<svg width="20" height="20" fill="none" xmlns="http://www.w3.org/2000/svg"><path fill-rule="evenodd" clip-rule="evenodd" d="M5.877.06C6.944.011 7.284 0 10 0c2.717 0 3.056.012 4.122.06 1.065.048 1.793.218 2.428.465a4.905 4.905 0 011.772 1.153c.508.5.902 1.104 1.153 1.771.247.637.416 1.364.465 2.428.049 1.067.06 1.407.06 4.123s-.012 3.056-.06 4.123c-.048 1.064-.218 1.792-.465 2.428a4.904 4.904 0 01-1.153 1.77c-.5.51-1.104.903-1.771 1.154-.636.247-1.364.416-2.428.465-1.067.049-1.407.06-4.123.06s-3.056-.012-4.123-.06c-1.064-.048-1.791-.218-2.428-.465a4.905 4.905 0 01-1.77-1.153A4.901 4.901 0 01.524 16.55c-.247-.636-.416-1.364-.465-2.428C.011 13.056 0 12.717 0 10c0-2.717.012-3.056.06-4.122.048-1.065.218-1.792.465-2.429a4.905 4.905 0 011.153-1.77A4.901 4.901 0 013.45.524C4.086.278 4.813.109 5.877.06zm8.164 1.8c-1.054-.048-1.371-.058-4.041-.058-2.67 0-2.987.01-4.041.058-.975.044-1.505.207-1.857.344-.466.182-.8.398-1.15.748-.35.35-.566.684-.748 1.15-.137.352-.3.882-.344 1.857C1.812 7.013 1.802 7.33 1.802 10c0 2.67.01 2.987.058 4.041.044.975.207 1.505.344 1.857.16.434.416.827.748 1.15.323.332.716.587 1.15.748.352.137.882.3 1.857.344 1.054.048 1.37.058 4.041.058 2.67 0 2.987-.01 4.041-.058.975-.044 1.505-.207 1.857-.345.466-.18.8-.397 1.15-.747.332-.323.587-.716.748-1.15.137-.352.3-.882.344-1.857.048-1.054.058-1.371.058-4.041 0-2.67-.01-2.987-.058-4.041-.044-.975-.207-1.505-.345-1.857a3.094 3.094 0 00-.747-1.15 3.102 3.102 0 00-1.15-.748c-.352-.137-.882-.3-1.857-.344zM8.723 13.083a3.334 3.334 0 003.636-.724 3.337 3.337 0 10-3.636.724zM6.365 6.365a5.14 5.14 0 117.27 7.27 5.14 5.14 0 01-7.27-7.27zm9.915-.74a1.215 1.215 0 10-1.72-1.717 1.215 1.215 0 001.72 1.718z" fill="#F8F8F0"/></svg>