<svg width="20" height="20" fill="none" xmlns="http://www.w3.org/2000/svg"><path d="M18.525 0H1.475A1.46 1.46 0 000 1.443V18.56A1.46 1.46 0 001.475 20h17.05A1.464 1.464 0 0020 18.555V1.438A1.464 1.464 0 0018.525 0z" fill="#000"/><path d="M2.96 7.497h2.97v9.552H2.96V7.497zm1.486-4.754a1.721 1.721 0 110 3.442 1.721 1.721 0 010-3.442zM7.792 7.497h2.846v1.311h.04c.396-.75 1.363-1.542 2.807-1.542 3.007-.007 3.564 1.972 3.564 4.537v5.246H14.08v-4.647c0-1.107-.02-2.531-1.542-2.531-1.523 0-1.782 1.206-1.782 2.459v4.72H7.792V7.496z" fill="#fff"/></svg>