<svg width="109" height="111" fill="none" xmlns="http://www.w3.org/2000/svg"><path d="M108.984 100.823l-4.306-69.73h-21.51v-5.63C83.168 11.422 70.38 0 54.658 0 38.939 0 26.15 11.422 26.15 25.463v5.63H3.71L.004 101.124l-.003.121c-.03 2.52 1.09 4.994 3.075 6.784 1.984 1.792 4.741 2.82 7.564 2.82h87.72c2.91 0 5.727-1.082 7.728-2.971 2.001-1.888 3.057-4.46 2.896-7.056zm-75.399-75.36c0-10.379 9.453-18.822 21.074-18.822 11.62 0 21.074 8.444 21.074 18.822v5.63H33.585v-5.63zm67.102 77.851c-.603.568-1.451.895-2.327.895H10.64c-.85 0-1.68-.31-2.279-.851-.585-.526-.92-1.251-.926-1.993l3.366-63.632h15.347v8.41c0 1.834 1.665 3.32 3.718 3.32 2.054 0 3.718-1.486 3.718-3.32v-8.41h42.148v8.41c0 1.834 1.664 3.32 3.718 3.32 2.053 0 3.717-1.486 3.717-3.32v-8.41H97.64l3.918 63.457c.05.781-.268 1.555-.871 2.124z" fill="#551A8B"/></svg>