<svg width="41" height="41" fill="none" xmlns="http://www.w3.org/2000/svg"><circle cx="20.5" cy="20.5" r="19" stroke="#F5F5F5" stroke-width="3"/><path d="M12 11.603c0-.69.21-1.352.586-1.84C12.96 9.273 13.47 9 14 9h3.28c.21 0 .414.086.584.246.17.16.298.385.364.644l1.498 5.848c.076.297.067.62-.025.91-.093.289-.262.525-.477.665l-2.257 1.47c1.106 3.187 3.068 5.74 5.516 7.18l1.13-2.938c.108-.28.29-.5.511-.62a.786.786 0 01.699-.033l4.493 1.95c.2.086.373.252.495.473.123.222.19.488.189.762v4.267c0 .69-.21 1.353-.586 1.841-.375.488-.884.763-1.414.763h-1c-8.284 0-15-8.742-15-19.523v-1.302z" stroke="#F5F5F5" stroke-width="2" stroke-linecap="round" stroke-linejoin="round"/></svg>