<svg width="36" height="33" fill="none" xmlns="http://www.w3.org/2000/svg"><path d="M1 1h3.778l.755 3.444m0 0H35l-7.556 13.778H8.556M5.533 4.444l3.023 13.778m0 0l-4.332 3.95c-1.19 1.084-.347 2.94 1.336 2.94h21.884m0 0c-1.002 0-1.962.362-2.67 1.008-.71.646-1.107 1.522-1.107 2.436 0 .913.398 1.79 1.106 2.435.709.646 1.67 1.009 2.671 1.009 1.002 0 1.963-.363 2.672-1.009.708-.646 1.106-1.522 1.106-2.435 0-.914-.398-1.79-1.106-2.436-.709-.646-1.67-1.009-2.672-1.009zm-15.11 3.444c0 .913-.399 1.79-1.107 2.435-.709.646-1.67 1.009-2.671 1.009-1.002 0-1.963-.363-2.672-1.009-.708-.646-1.106-1.522-1.106-2.435 0-.914.398-1.79 1.106-2.436.709-.646 1.67-1.009 2.672-1.009 1.001 0 1.962.363 2.67 1.009.71.646 1.107 1.522 1.107 2.436z" stroke="#F5F5F5" stroke-width="2" stroke-linecap="round" stroke-linejoin="round"/></svg>